<svg id="Layer_2" data-name="Layer 2" xmlns="http://www.w3.org/2000/svg" viewBox="0 0 801.37 419.69"><defs><style>.cls-1{fill:#231f20;}.cls-2{fill:none;stroke:#231f20;stroke-miterlimit:10;}</style></defs><title>hero</title><path class="cls-1" d="M21.17,332.29a12,12,0,0,0-6.38,1.17,3.67,3.67,0,0,0-2.07,4.43,20.75,20.75,0,0,0,2.22,4.61,27.89,27.89,0,0,1,2.42,4.9c1,2.66,2.28,6.45,2.43,8.94.18,2.85,1.82,6.26,2.86,8.16a7.61,7.61,0,0,1,.88,2.61,19.88,19.88,0,0,0,1.59,5.08,16.57,16.57,0,0,1,1.19,4.19,29.13,29.13,0,0,0,2.11,7.22,8.83,8.83,0,0,0,2.36,3.27,3.42,3.42,0,0,0,1.6.89,11.25,11.25,0,0,0,2.13-.16,2.56,2.56,0,0,0,2.13-3.12h0a4,4,0,0,1,.21-2.29,7,7,0,0,0,.33-5.15v0a9.58,9.58,0,0,0-2-3.08,2.74,2.74,0,0,1-.52-1.9,20.9,20.9,0,0,0-.55-5.17,48.74,48.74,0,0,1-1.21-5.95c-.26-2.77.61-3.7-.26-5.42s-2.19-1.43-2-3.13.76-1.32-.58-3.67-1.65-5.3-.22-5.85.65-1.49,3.8,2.42,12.78,16.18,21.5,14.88c6.57-1,9.69-7.64,10.82-10.84a12.78,12.78,0,0,0,.64-2.93c.42-4.17,1.87-17.89,3.2-18.92,1.58-1.22,13.43,15.73,13.43,15.73a6,6,0,0,0,2.28,1.88,8.37,8.37,0,0,1,3.38,3.08c.3.5.63,1,.93,1.51,1.05,1.65,6.11,9,11.69,8h0a3.15,3.15,0,0,0,2-4.1,25.77,25.77,0,0,0-1.09-2.6c-.66-1.18-4.89-3.65-10.29-11.81S82,327.08,82,327.08s-6.66-6.65-6.82-7.61-2.44-4.39-2.67-5.33c-.06-.25.18-.69.15-1.19a3.45,3.45,0,0,0-1.67-2.76l-2.36-2.61L67,304.05a3.4,3.4,0,0,0-2.58-2,2.71,2.71,0,0,0-1.82.35c-1.74,1.06-4.64,3.38-1.08,14.06a7,7,0,0,1,.24,3.55c-.56,2.8-1.66,8.15-2.66,11.6a10,10,0,0,0-.52,4.4,15.85,15.85,0,0,1,.22,4.81l-.71,5.85a5.16,5.16,0,0,1-1.84,3.43c-1.6,1.25-4.43,1.84-8.94-2.27-7.52-6.87-16.48-20.15-21.51-31.74A2,2,0,0,0,23.3,315c-1.95.71-4.88,1.8-5.53,2.18-1,.58-.4,3.32,3.89,14.51A.45.45,0,0,1,21.17,332.29Z" transform="translate(-12.56 -18.1)"/><path class="cls-1" d="M103.55,313c1.27-1.87,3.53-3.87,6.85-1.74a4.84,4.84,0,0,1,1.42,1.43c1,1.54,3.36,5.13,5.5,9.06a12.81,12.81,0,0,0,3.92,4.39c3.15,2.19,8.45,5.16,12.54,3.87,6.21-2,8.39-5.94,6.53-12.62s-4.12-7.36-4.12-7.36a26.71,26.71,0,0,0-5.68-4.9,3.4,3.4,0,0,1-1.8-3.29,2.9,2.9,0,0,1,.92-1.84,6.85,6.85,0,0,1,3.75-1.74,1.63,1.63,0,0,1,1.49.59h0a8.33,8.33,0,0,0,2.78,2.26,60.59,60.59,0,0,0,5.63,2.53,4.53,4.53,0,0,1,2.71,2.62l2.47,6.42s3.7,13.61-1.93,19.36a3,3,0,0,0-.87,2.85,2.69,2.69,0,0,0,.14.46c.43,1.11-14,6.11-18.34,5.63s-18.25-9.71-20.63-14a49.66,49.66,0,0,1-4-9.45A5.48,5.48,0,0,1,103.55,313Z" transform="translate(-12.56 -18.1)"/><path class="cls-1" d="M162.28,286l2.72-1.05a2.5,2.5,0,0,1,3.24,1.44l.77,2a3.34,3.34,0,0,0,.66,1.08,52.37,52.37,0,0,1,11.27,22.76,3.42,3.42,0,0,0,2.08,2.44c.86.34,1,1.2,1.23,1.69,1,2.19,14.57-6.12,16.68-8a4.57,4.57,0,0,1,1.13-.76c1.64-.76,5.12-2.08,5.64.11.68,2.88,1.32,4.71-2.83,8.73,0,0-4.91,2-7.37,5.26S181,327.32,181,327.32s-4.28-.1-5.85-1.5c-1.16-1-4.36-12.08-4.36-12.08l-.19-2.77a5,5,0,0,0-1.33-3.05c-.22-.24-.47-.54-.78-.92a3.33,3.33,0,0,1-.48-.81L165.39,300a1.71,1.71,0,0,0-.49-.67,8.64,8.64,0,0,1-1.71-2.11,5,5,0,0,1-.76-3.16v0a1.52,1.52,0,0,0-.69-1.42,3.21,3.21,0,0,1-1.23-1.53c-.57-1.49.51-.91.34-1.7,0-.21-.08-.49-.12-.8A2.42,2.42,0,0,1,162.28,286Z" transform="translate(-12.56 -18.1)"/><path class="cls-1" d="M537.75,136.8l2.72-1a2.5,2.5,0,0,1,3.24,1.43l.77,2a3.28,3.28,0,0,0,.66,1.09A52.37,52.37,0,0,1,556.41,163a3.42,3.42,0,0,0,2.08,2.44c.86.34,1,1.19,1.23,1.69,1,2.19,14.57-6.13,16.68-8a4.57,4.57,0,0,1,1.13-.76c1.64-.76,5.12-2.08,5.64.11.68,2.88,1.32,4.71-2.83,8.73,0,0-4.91,2-7.37,5.26s-16.48,5.63-16.48,5.63-4.29-.1-5.86-1.5c-1.15-1-4.36-12.08-4.36-12.08l-.19-2.77a5,5,0,0,0-1.33-3c-.21-.24-.47-.54-.78-.92a3.68,3.68,0,0,1-.48-.81l-2.62-6.18a1.74,1.74,0,0,0-.5-.67,8.64,8.64,0,0,1-1.71-2.11,5,5,0,0,1-.76-3.17v0a1.55,1.55,0,0,0-.7-1.43A3.24,3.24,0,0,1,536,141.9c-.57-1.49.51-.91.35-1.7-.05-.21-.09-.49-.13-.8A2.45,2.45,0,0,1,537.75,136.8Z" transform="translate(-12.56 -18.1)"/><path class="cls-1" d="M566.63,249.36l2.73-1.05a2.5,2.5,0,0,1,3.24,1.44l.76,2a3.56,3.56,0,0,0,.67,1.08,52.48,52.48,0,0,1,11.27,22.76,3.45,3.45,0,0,0,2.08,2.45c.86.33,1,1.19,1.23,1.68,1,2.2,14.57-6.12,16.68-8a4.57,4.57,0,0,1,1.13-.76c1.64-.76,5.12-2.08,5.63.11.69,2.88,1.32,4.71-2.82,8.73,0,0-4.92,2-7.38,5.26s-16.48,5.63-16.48,5.63-4.28-.1-5.85-1.49c-1.16-1-4.36-12.09-4.36-12.09l-.19-2.77a5.07,5.07,0,0,0-1.33-3c-.22-.24-.48-.54-.78-.92a3.33,3.33,0,0,1-.48-.81l-2.63-6.18a1.68,1.68,0,0,0-.49-.66,8.54,8.54,0,0,1-1.71-2.12,5,5,0,0,1-.76-3.16v0a1.53,1.53,0,0,0-.69-1.42,3.21,3.21,0,0,1-1.23-1.53c-.57-1.49.5-.91.34-1.7,0-.21-.08-.49-.12-.8A2.43,2.43,0,0,1,566.63,249.36Z" transform="translate(-12.56 -18.1)"/><path class="cls-1" d="M612.5,231l2.72-1a2.52,2.52,0,0,1,3.24,1.44l.77,2a3.39,3.39,0,0,0,.66,1.09,52.37,52.37,0,0,1,11.27,22.75,3.44,3.44,0,0,0,2.08,2.45c.86.34,1,1.19,1.23,1.69,1,2.19,14.57-6.13,16.68-8a4.57,4.57,0,0,1,1.13-.76c1.64-.77,5.12-2.09,5.64.1.68,2.89,1.32,4.72-2.83,8.74,0,0-4.91,2-7.37,5.25s-16.49,5.64-16.49,5.64-4.28-.1-5.85-1.5c-1.15-1-4.36-12.08-4.36-12.08l-.19-2.77a5,5,0,0,0-1.33-3q-.32-.36-.78-.93a3.15,3.15,0,0,1-.48-.81l-2.62-6.17a1.74,1.74,0,0,0-.5-.67,8.64,8.64,0,0,1-1.71-2.11,5,5,0,0,1-.76-3.17v0a1.55,1.55,0,0,0-.7-1.43,3.29,3.29,0,0,1-1.23-1.52c-.57-1.49.51-.91.35-1.7-.05-.21-.09-.49-.13-.8A2.45,2.45,0,0,1,612.5,231Z" transform="translate(-12.56 -18.1)"/><path class="cls-2" d="M204.14,285.3" transform="translate(-12.56 -18.1)"/><path class="cls-1" d="M222.78,279c-4.1,1.59-16.21,7-18,6.86a5.77,5.77,0,0,0,.16,5.61,2.16,2.16,0,0,0,1.1.92c1.44.52,6.23,1,14-.33.51-.82,9.46,20,15.1,20.9,5.86,1,4.82-6.45,4.77-5.73l-2.19-5.71a2.44,2.44,0,0,0-1.61-1.52c-.25-.07-.45-.18-.47-.36a35.88,35.88,0,0,0-1.68-3.93,1.85,1.85,0,0,0-1.05-1l-.15,0-.37-.85a1.15,1.15,0,0,0-1-.7l-.61,0-1.56-4a1.84,1.84,0,0,1,1-2.37c4.16-1.61,14.69-5.84,17.87-8.75,4-3.66,3.11-4.59,3-4.92s-.66-2.48-5.07-2.5a4.72,4.72,0,0,0-1.78.36c-3.19,1.3-15.09,6.12-19.37,7.38C224.2,278.52,223.49,278.76,222.78,279Z" transform="translate(-12.56 -18.1)"/><path class="cls-1" d="M269.11,382.55c-4.1,1.59-16.21,7-18,6.86a5.77,5.77,0,0,0,.16,5.61,2.1,2.1,0,0,0,1.1.91c1.44.53,6.23,1,14-.32.51-.82,9.46,20,15.1,20.9,5.86,1,4.82-6.45,4.77-5.74l-2.19-5.7a2.44,2.44,0,0,0-1.61-1.52c-.25-.07-.45-.18-.47-.36a35.85,35.85,0,0,0-1.68-3.94,1.87,1.87,0,0,0-1.05-1l-.15-.05-.37-.86a1.16,1.16,0,0,0-1-.69l-.61,0-1.55-4a1.82,1.82,0,0,1,1-2.36c4.16-1.61,14.69-5.84,17.87-8.75,4-3.66,3.11-4.59,3-4.92s-.66-2.49-5.07-2.5a4.71,4.71,0,0,0-1.78.35c-3.19,1.31-15.09,6.13-19.37,7.39C270.53,382,269.82,382.28,269.11,382.55Z" transform="translate(-12.56 -18.1)"/><path class="cls-1" d="M476.6,300.8c-4.11,1.59-16.21,7-18,6.86a5.8,5.8,0,0,0,.16,5.61,2.21,2.21,0,0,0,1.11.91c1.44.53,6.23,1,14-.32.5-.82,9.45,20,15.1,20.9,5.86,1,4.82-6.45,4.77-5.74l-2.2-5.71a2.49,2.49,0,0,0-1.61-1.52c-.25-.06-.44-.17-.46-.35a35.85,35.85,0,0,0-1.68-3.94,1.87,1.87,0,0,0-1-1l-.15-.06-.37-.85a1.17,1.17,0,0,0-1-.69l-.62-.05-1.55-4a1.84,1.84,0,0,1,1.05-2.37c4.16-1.6,14.68-5.83,17.86-8.74,4-3.66,3.11-4.6,3-4.92s-.66-2.49-5.07-2.5a4.71,4.71,0,0,0-1.78.35c-3.2,1.3-15.09,6.13-19.37,7.39C478,300.29,477.3,300.53,476.6,300.8Z" transform="translate(-12.56 -18.1)"/><path class="cls-1" d="M257,250.44l6-2.3a1.54,1.54,0,0,1,2,.83l5.45,12.57a9,9,0,0,0,.48,1c1.33,2.44,7.28,13.17,11.58,17.15a3.51,3.51,0,0,1,.91,1.35l2.19,5.68a1.8,1.8,0,0,1-1,2.33l-2.91,1.12a2.81,2.81,0,0,1-1,.18c-1.27,0-4.07-.76-6.2-5.62a3,3,0,0,0-1.37-1.45c-1.29-.63-3.79-2.51-6.45-8-3.86-7.91-10.31-21.65-10.31-21.65S255.46,251.59,257,250.44Z" transform="translate(-12.56 -18.1)"/><path class="cls-1" d="M339.33,218.28l6-2.3a1.55,1.55,0,0,1,2,.83l5.45,12.58a9.85,9.85,0,0,0,.48,1c1.33,2.44,7.28,13.17,11.58,17.16a3.4,3.4,0,0,1,.91,1.34l2.19,5.68a1.8,1.8,0,0,1-1,2.33L364,258a2.62,2.62,0,0,1-1,.18c-1.27-.05-4.07-.76-6.2-5.61a2.85,2.85,0,0,0-1.37-1.45c-1.29-.64-3.79-2.51-6.45-8-3.86-7.9-10.31-21.65-10.31-21.65S337.8,219.43,339.33,218.28Z" transform="translate(-12.56 -18.1)"/><path class="cls-1" d="M461,169.68l6-2.31a1.56,1.56,0,0,1,2,.83l5.45,12.58a9,9,0,0,0,.48,1c1.32,2.44,7.28,13.16,11.58,17.15a3.75,3.75,0,0,1,.91,1.35l2.19,5.68a1.81,1.81,0,0,1-1,2.33l-2.91,1.11a2.48,2.48,0,0,1-1,.18c-1.27,0-4.07-.76-6.2-5.61a2.89,2.89,0,0,0-1.37-1.45c-1.29-.63-3.79-2.51-6.45-8-3.86-7.91-10.31-21.66-10.31-21.66S459.49,170.82,461,169.68Z" transform="translate(-12.56 -18.1)"/><path class="cls-1" d="M581.05,122.46l6-2.3a1.54,1.54,0,0,1,2,.82l5.45,12.58q.22.51.48,1c1.33,2.44,7.28,13.16,11.59,17.15a3.75,3.75,0,0,1,.91,1.35l2.18,5.68a1.8,1.8,0,0,1-1,2.33l-2.9,1.12a2.9,2.9,0,0,1-1.05.18c-1.27-.05-4.06-.76-6.19-5.62a3,3,0,0,0-1.37-1.45c-1.29-.63-3.79-2.51-6.46-8-3.85-7.91-10.3-21.65-10.3-21.65S579.52,123.6,581.05,122.46Z" transform="translate(-12.56 -18.1)"/><path class="cls-1" d="M331.88,248.89a76.17,76.17,0,0,0-6.61-8.71c-1.42-1.34-12.26-3.61-14.18-4.09a.61.61,0,0,1-.41-.37,2.21,2.21,0,0,0-2.22-1.41l-1.52.11a4.29,4.29,0,0,1-1.77-.26l-13.64-5.11a4.24,4.24,0,0,0-4.34,1.67c-1.41,2.14-3.5,2.49-2.64,5.65a7.88,7.88,0,0,0,.62,1.54c1.83,3.56,11.18,21.84,15,30.86a9.21,9.21,0,0,0,5.36,5.13l.11,0a3.52,3.52,0,0,0,4.67-3.19v-.11s12.49-3.15,18.24-5a5,5,0,0,0,3-2.69,50.9,50.9,0,0,1,2.6-5.4l.1-.05a1.26,1.26,0,0,0,.46-1.52l-2.35-6.1A6.45,6.45,0,0,0,331.88,248.89ZM325,255.81c-1.49.34-1.67,2.27-1.67,2.27L313,261.65a2.87,2.87,0,0,1-3.14-.85c-3.55-4.17-6.75-11.13-8.09-14.25a1.57,1.57,0,0,1,1.26-2.2c6.69-.66,20.68,8.13,20.68,8.13S326.51,255.47,325,255.81Z" transform="translate(-12.56 -18.1)"/><path class="cls-1" d="M391,206h0a1.14,1.14,0,0,0,1.4.68,3.65,3.65,0,0,0,1.39-.84,10.65,10.65,0,0,0,1.71-2.69,6,6,0,0,0,.42-4.17c-.33-1.2-.8-2.47-1.35-2.55-1-.16-2.89-3.45-8.56-1.19s-7.14,5.1-7.14,5.1S372.2,210.53,370,218a9.9,9.9,0,0,0-.3,4.49,14.17,14.17,0,0,0,.65,2.36,6.28,6.28,0,0,0,3.59,3.67c1.56.62,3.5,1.41,4.2,1.78.94.49,3.72-.53,5-1.06a5.43,5.43,0,0,1,1.58-.37c3-.22,12.63-.63,16.2,3,0,0,1.69,1.06.47,1.95-1,.72-13.94,5.51-19.22,7.45a5.08,5.08,0,0,0-3.35,4.37,5.29,5.29,0,0,0,.1,1.53c.54,2.49,3.91,3.49,6.14,2.62,1.85-.72,15.33-5.58,19.86-7.22a4.49,4.49,0,0,0,2.29-1.85c1.5-2.4,4.67-7.26,5.82-7.32,1.53-.09-2.65-6.88-2.65-6.88l-1.67-1.39-2-.75-.51-.73a3.31,3.31,0,0,0-2.91-1.4l-1.63.09-.42-.62a3.19,3.19,0,0,0-2.45-1.39l-6.15-.37-.44-.8a3.29,3.29,0,0,0-3-1.69l-2.58.11s-4.52-.65-5.54,0,2.22-9.39,5.13-11.08a19,19,0,0,1,2.95-1.43A1.41,1.41,0,0,1,391,206Z" transform="translate(-12.56 -18.1)"/><path class="cls-1" d="M426.76,205.3a14.6,14.6,0,0,0,10,8.14,4.39,4.39,0,0,0,2.72-.3l6.21-2.78.12-.17a3.66,3.66,0,0,1,1.55-1.26l5.1-2.2s10-6.08,10.62-4.74c.47,1-1,4.35-1.7,5.88a2.9,2.9,0,0,1-1.09,1.21l-1.41.87a1.25,1.25,0,0,0-.43,1.67c.62,1.12,1,2.77-2.35,2.63-3-.13-3.39.87-3.23,1.7a1.42,1.42,0,0,1-.93,1.57l-12.9,5a11.56,11.56,0,0,1-9.44-.5,24.12,24.12,0,0,1-3.28-2,22,22,0,0,1-7.38-9.8c-1.38-3.58-1.56-3-1.93-7.69s4.73-12.89,7-16.79c.08-.13.7-1.34,1.22-2.35a3.82,3.82,0,0,1,2.1-1.83c2.39-.88,2.68-2.09,4.83-2.89a6.68,6.68,0,0,1,3.94-.12l.82.23a3.85,3.85,0,0,1,2.47,2.17l.2.47a4.45,4.45,0,0,1-1.6,5.41,5,5,0,0,1-4.47.91,1.41,1.41,0,0,0-1.64.72l-5.23,10.07a3.07,3.07,0,0,0-.1,2.6l.87,2a1.78,1.78,0,0,1-.64,2.17Z" transform="translate(-12.56 -18.1)"/><path class="cls-1" d="M517.72,145.67l-14.55-1.29a10.28,10.28,0,0,0-4.63.65c-1.91.73-3,3-4.31,4.56-1.76,2.08-3.91,3.24-3.54,6,.53,4,3.86,12,5,14.87a4,4,0,0,0,1.52,1.89,2.4,2.4,0,0,0,.45.23c.73.28-.61.86-.61.86a4.11,4.11,0,0,0,.63,2.05.8.8,0,0,1-.27,1.18.7.7,0,0,0-.34.89l3,7.76a12.14,12.14,0,0,0,1.49,2.74,47.54,47.54,0,0,0,9.9,10.18,3.28,3.28,0,0,0,3.05.35l2.29-.89a2.87,2.87,0,0,0,1.67-1.69l1-2.7a4.89,4.89,0,0,0-.33-4.09,48.91,48.91,0,0,0-4.53-6.81,6,6,0,0,1-.9-1.49l-1.31-3a1.31,1.31,0,0,1,.68-1.72l8.34-3.6c.66-.29,1-.94,1.45-1.49,1.72-2.07,2.64-8.26,1.55-16.4C523.14,145.27,518.81,145.5,517.72,145.67Zm-1.1,12.1a13.55,13.55,0,0,1-1.31,7.78,1.92,1.92,0,0,1-.8.77c-1.74.9-7.34,3.48-10.66,1.14-3.07-2.17-3.16-8.34-3.05-11a1.65,1.65,0,0,1,1.31-1.56c2.66-.56,9.06-1.52,13.39,1.12A2.37,2.37,0,0,1,516.62,157.77Z" transform="translate(-12.56 -18.1)"/><path class="cls-1" d="M616.08,119.55a1.81,1.81,0,0,0,.8-2.12c-.63-1.84-1.18-5,1.85-5.94a1.53,1.53,0,0,1,1.87.24,1.39,1.39,0,0,0,.89.33,2.15,2.15,0,0,1,2.07,1.33l1,2.55a27.82,27.82,0,0,1,5.67,3c1.63,1.3,18.24,1.78,23.54,1.92a1,1,0,0,0,.93-1.51c-1.74-3.19-6.54-11.08-6.85-11.79-.21-.48,0-2.78.59-2.32.36.27-.63-1.36-1.46-2.69a3.35,3.35,0,0,1,.07-3.67c.33-.47.7-.85,1.06-.89s.36-.2.31-.42a2,2,0,0,1,1.14-2.32l1.39-.54a3,3,0,0,1,3.63,1.21c1.08,1.73,1,4.44,1.89,6.77l.65,1.67s8.09,10,9.67,14.72c1.36,4.06.05,3.79.05,3.79,1.39.41-.86,1-1.21,4-.37,3.22-1,3.19-4.17,3.72-2.68.44-11.61.57-27.81-.27,0,0-2.43.83-1,8.68a5.31,5.31,0,0,1-.74,3.87,9.56,9.56,0,0,0-1.52,3.74c-.18,1.19-1.44,1.53-2.88,1.27-4.08-.74-4.53-2.49-4.92-4.76-1-5.43-4.72-17.57-5.46-17.49,0,0-2.74-4.27-2.45-4.93A4.37,4.37,0,0,1,616.08,119.55Z" transform="translate(-12.56 -18.1)"/><path class="cls-1" d="M723.33,104c-2.12-2.33-15.26-6.29-22.14-13.88s-4.92-9.58-16.35-11.6c0,0-1.83.57-.84,2.79s-1.27,2-1.27,2-2.82,1.2,1.65,3.58l.45,1.87s-1.39,24.44-.58,33.28c0,0,1.41,6.14,6.52,4.86,0,0,4.52-3.51,4.79-8.13,0,0,9.56-5.32,14.26-11.22,0,0,5.73,2.84,9.06,2.25a25.44,25.44,0,0,0,6-1.89S725.45,106.32,723.33,104Zm-20.1,0a6.52,6.52,0,0,1-3.11,2.56s-3.38.08-3.79,2.56-2.86-7.78-2-10.16l2.14-.83s1.74,4.52,5.67,3C702.14,101.09,704.08,102.25,703.23,104Z" transform="translate(-12.56 -18.1)"/><path class="cls-1" d="M743.55,101.58a2.46,2.46,0,0,0,2.15-2.32,3.65,3.65,0,0,1,.78-2,2.25,2.25,0,0,0,.15-2.57c-1.53-2.43-5.25-8.88-15-25.58a2.46,2.46,0,0,1,.82-3.34c3-1.9,8.82-5,13.37-4.19a2.14,2.14,0,0,1,1.74,2.4c-.61,4.66-3.28,17.5.5,23,2.55,3.71,8.34,5.29,11.76,6.09a19.09,19.09,0,0,0,8.24.07c3.17-.68,7.77-1.82,9.19-3.06,2.25-2,2.09-5.58,2.09-5.58s.43-3.86-9.59-1.5c-10.57,2.48-12.15-6.36-12.15-6.36a53.5,53.5,0,0,1,2.9-19.44s.59-5.56-4.52-6c-4.23-.41-21.22,2.32-26.92,3.26a4.1,4.1,0,0,0-2.69,1.72A13.36,13.36,0,0,1,723,59.39a3.74,3.74,0,0,0-1.38,4.41l6.88,17.86L728.06,83a5.3,5.3,0,0,0,.55,4.55h0l.66.26a4.54,4.54,0,0,1,2.66,2.79C733.22,94.4,736.73,102.25,743.55,101.58Z" transform="translate(-12.56 -18.1)"/><path class="cls-1" d="M382.49,366.91a2.44,2.44,0,0,0,2.15-2.32,3.73,3.73,0,0,1,.78-2,2.23,2.23,0,0,0,.15-2.57c-1.53-2.43-5.25-8.87-15-25.58a2.46,2.46,0,0,1,.81-3.34c3.05-1.9,8.83-4.95,13.37-4.19a2.16,2.16,0,0,1,1.75,2.4c-.61,4.66-3.28,17.51.49,23,2.55,3.72,8.35,5.29,11.77,6.09a19.08,19.08,0,0,0,8.24.07c3.17-.67,7.76-1.82,9.19-3.06,2.25-2,2.08-5.58,2.08-5.58s.43-3.85-9.59-1.5c-10.56,2.48-12.14-6.35-12.14-6.35a53.4,53.4,0,0,1,2.89-19.45s.59-5.56-4.51-6c-4.23-.41-21.22,2.32-26.93,3.26a4.08,4.08,0,0,0-2.68,1.72,13.26,13.26,0,0,1-3.34,3.27,3.75,3.75,0,0,0-1.38,4.41L367.47,347l-.46,1.35a5.29,5.29,0,0,0,.55,4.56h0l.65.25a4.58,4.58,0,0,1,2.67,2.79C372.16,359.73,375.67,367.59,382.49,366.91Z" transform="translate(-12.56 -18.1)"/><path class="cls-1" d="M729,229.09a2.44,2.44,0,0,0,2.15-2.32,3.65,3.65,0,0,1,.78-2,2.23,2.23,0,0,0,.14-2.57c-1.52-2.43-5.24-8.87-15-25.58a2.46,2.46,0,0,1,.82-3.34c3-1.9,8.82-4.95,13.37-4.18a2.13,2.13,0,0,1,1.74,2.39c-.61,4.66-3.28,17.51.5,23,2.55,3.72,8.34,5.29,11.76,6.09a19.09,19.09,0,0,0,8.24.07c3.17-.67,7.77-1.82,9.19-3.06,2.25-2,2.09-5.58,2.09-5.58s.43-3.85-9.59-1.5C744.61,213,743,204.15,743,204.15a53.3,53.3,0,0,1,2.9-19.45s.59-5.56-4.52-6c-4.23-.41-21.22,2.32-26.92,3.26a4.14,4.14,0,0,0-2.69,1.72,13.36,13.36,0,0,1-3.33,3.27,3.74,3.74,0,0,0-1.38,4.41L714,209.18l-.47,1.34a5.32,5.32,0,0,0,.55,4.56h0l.66.25a4.54,4.54,0,0,1,2.66,2.79C718.66,221.92,722.17,229.77,729,229.09Z" transform="translate(-12.56 -18.1)"/><path class="cls-1" d="M770.71,40.16c2.48-1.23,6.07-1.9,8.49,2.47a4.42,4.42,0,0,0,2.45,2.07l5.2,1.73a4.05,4.05,0,0,0,2.1.11l.69-.15a3.17,3.17,0,0,0,2.19-1.74l2-4.25a2.24,2.24,0,0,0,.07-1.74h0a5.29,5.29,0,0,1,.54-4.85h0a2.8,2.8,0,0,0,.28-2.57l-.77-2a7.52,7.52,0,0,1-.34-4.3l.74-3.51a4.34,4.34,0,0,1,2.68-3.16h0a2.24,2.24,0,0,1,2.89,1.28l2.57,6.68a6.09,6.09,0,0,1,.3,1.09c.33,2,1,8.66,0,11.88a8.71,8.71,0,0,0-.4,1.75A36.18,36.18,0,0,1,798.16,55L802,64a7.12,7.12,0,0,0,1.13,1.84,51,51,0,0,0,9.19,8.55c3.75,2.56.14,4.63-2.39,5.65a6.31,6.31,0,0,1-5.09-.17c-3.49-1.67-9.57-6.61-16.3-21.14,0,0-10-7-15.95-9.95a3.86,3.86,0,0,1-1.66-1.54l-1.54-2.64A3.17,3.17,0,0,1,770.71,40.16Z" transform="translate(-12.56 -18.1)"/><path class="cls-1" d="M219.12,376.91s-.81,5.36,1.93,7c1.8,1.07,4.25-1.5,5.74-3.39a7,7,0,0,0,1.48-4c.08-1.77.33-5.49-1.31-7.18s-9.14-.09-12.35.83a6.32,6.32,0,0,0-2.16,1.1l-.53.41a4.9,4.9,0,0,1-3.34,1h0a3.11,3.11,0,0,0-1.35.21l-8.82,3.4a9.16,9.16,0,0,0-5.4,5.52,19.33,19.33,0,0,0,.61,14.85,14.43,14.43,0,0,0,5.32,5.93l11.09,7a65,65,0,0,0,24.1,7.64,1.22,1.22,0,0,1,1.12,1.33c-.17,1.23-1.51,3.43-7,6.92l-11.16,2.67a9.1,9.1,0,0,1-3.88.31,20.49,20.49,0,0,0-5.79-.2l-.09-.18a3.65,3.65,0,0,0-5.48-.95l-.85.69a2,2,0,0,0-.3,2.79c1.8,2.31,6.11,6.32,14.76,7,9.62.8,20-4.44,24-6.76a7.27,7.27,0,0,0,2.71-2.71l5.25-9.15a5.34,5.34,0,0,0-.25-5.82c-1.72-2.34-5.5-5.42-13.77-8.2a7.44,7.44,0,0,0-3.86-.24c-1.49.3-3.64.43-4.95-.84a6.49,6.49,0,0,0-1.76-1.09c-4.44-1.87-18.75-8-19.92-10.68-1.4-3.11-1-7.5,2-9.23S219.12,376.91,219.12,376.91Z" transform="translate(-12.56 -18.1)"/><path class="cls-1" d="M351.24,359.62c-1-2.49-3.39-3.56-5.84-4.7a11.4,11.4,0,0,0-8.81-.47l-4.78,1.72c-1.47.52-2.65-1.21-3.21-2.66L328,352s-3.69-4.1-9.58-1.08a5.67,5.67,0,0,0-2.37,2.31,24.09,24.09,0,0,0-2.56,6.08c-.36,2.44-5.61,9.65-2.52,15,0,0,1.59,6.3,2.75,7.39s7.71,8.12,13.21,8.43c5.1.28,8.11.28,16.35-4.12a6.28,6.28,0,0,0,2.82-3.07,95.21,95.21,0,0,1,4.57-9.5,5.06,5.06,0,0,0,.39-4.42l0-.11s1.48-4.64,1.68-5.1A18.48,18.48,0,0,0,351.24,359.62Zm-8.4,5.43s1.2,7.73-8.3,13.67a7.74,7.74,0,0,1-6.08.91c-2.38-.64-5.46-1.76-6.9-3.51-2.52-3.06-.28-11.19-.28-11.19s17.37-5.76,19.88-4.23A6.77,6.77,0,0,0,342.84,365.05Z" transform="translate(-12.56 -18.1)"/><path class="cls-1" d="M409.86,310.9l-1.4-2.65a2.75,2.75,0,0,1,1.19-3.73c2.51-1.28,6.52-2.25,9.3,2.36a5.48,5.48,0,0,0,3.07,2.37l6.28,2,2.51-1s4.23-5.47,4.05-6.94a5.81,5.81,0,0,0-.47-1.64,3.84,3.84,0,0,1-.16-2.63l.51-1.68a3.1,3.1,0,0,0-.08-2h0a6.67,6.67,0,0,1-.44-2.45c0-2.87.16-9.62,1.11-10.28a7.89,7.89,0,0,1,1.54-.76,3,3,0,0,1,3.8,1.61,42.64,42.64,0,0,1-1.76,35.88,37.48,37.48,0,0,0,13.82,20.09,3.24,3.24,0,0,1,1.18,1.72h0a2.81,2.81,0,0,1-1.7,3.38l-3.13,1.21s-7,2.71-21.43-21.73c0,0-9.19-8.56-15.14-10.75A4.91,4.91,0,0,1,409.86,310.9Z" transform="translate(-12.56 -18.1)"/><path class="cls-1" d="M520.49,267.05c-.21,1.34-1.3,3.34-5.51,4.85,0,0-4.5,2.38,8,30.77,0,0,3.81,11.38,27.09-.06a4.71,4.71,0,0,0,.9-.57c1.68-1.34,7.47-6.39,7.39-11.69a1.9,1.9,0,0,0-2.74-1.63l-15.09,7.19s-4.63,2.1-7.3-.67a2.19,2.19,0,0,1,.12-3.11c2.61-2.43,8.32-7.83,8.65-8.88.42-1.32,9.67-1.35,9.42-11.17a1.91,1.91,0,0,0-1-1.61h0a3,3,0,0,0-3.07.13c-4.1,2.73-15.49,10.37-18.73,13.33,0,0-4.93-7.32-.37-11.95,4.15-4.23,15.51-10.92,15.39-17.82a1.84,1.84,0,0,0-2.12-1.8,19.58,19.58,0,0,0-9.61,4.19c-3.23,2.81-7.4,6-9.72,7.72A4.31,4.31,0,0,0,520.49,267.05Z" transform="translate(-12.56 -18.1)"/><path class="cls-1" d="M664.55,210.17c-.2,1.34-1.3,3.34-5.51,4.85,0,0-4.49,2.39,8,30.77,0,0,3.81,11.38,27.09,0a5.26,5.26,0,0,0,.9-.57c1.68-1.35,7.47-6.4,7.39-11.7a1.91,1.91,0,0,0-2.74-1.63L684.56,239s-4.63,2.11-7.3-.67a2.19,2.19,0,0,1,.12-3.11c2.61-2.43,8.32-7.82,8.66-8.88.41-1.31,9.66-1.34,9.41-11.17a1.91,1.91,0,0,0-1-1.61h0a3,3,0,0,0-3.06.14c-4.11,2.72-15.5,10.36-18.74,13.33,0,0-4.93-7.32-.37-12,4.15-4.22,15.52-10.92,15.4-17.82a1.85,1.85,0,0,0-2.13-1.79,19.55,19.55,0,0,0-9.61,4.18c-3.23,2.82-7.39,6-9.72,7.73A4.3,4.3,0,0,0,664.55,210.17Z" transform="translate(-12.56 -18.1)"/></svg>